<svg enable-background="new 0 0 512 512" height="512" viewBox="0 0 512 512" width="512" xmlns="http://www.w3.org/2000/svg"><path d="m128 32h128v64h-128z" fill="#f98800" transform="matrix(-1 0 0 -1 384 128)"/><path d="m256 32-128 64h128z" fill="#f05a29"/><path d="m128 32h128v64h-128z" fill="#f98800" transform="matrix(-1 0 0 -1 384 128)"/><path d="m256 32-128 64h128z" fill="#f05a29"/><path d="m0 32h128v64h-128z" fill="#f98800" transform="matrix(-1 0 0 -1 128 128)"/><path d="m128 32-128 64h128z" fill="#f05a29"/><path d="m256 32h128v64h-128z" fill="#f98800" transform="matrix(-1 0 0 -1 640 128)"/><path d="m384 32-128 64h128z" fill="#f05a29"/><path d="m192 96h128v64h-128z" fill="#f98800" transform="matrix(-1 0 0 -1 512 256)"/><path d="m320 96-128 64h128z" fill="#f05a29"/><path d="m64 96h128v64h-128z" fill="#f98800" transform="matrix(-1 0 0 -1 256 256)"/><path d="m192 96-128 64h128z" fill="#f05a29"/><path d="m320 96h128v64h-128z" fill="#f98800" transform="matrix(-1 0 0 -1 768 256)"/><path d="m448 96-128 64h128z" fill="#f05a29"/><path d="m384 32h128v64h-128z" fill="#f98800" transform="matrix(-1 0 0 -1 896 128)"/><path d="m512 32-128 64h128z" fill="#f05a29"/><path d="m128 160h128v64h-128z" fill="#f98800" transform="matrix(-1 0 0 -1 384 384)"/><path d="m256 160-128 64h128z" fill="#f05a29"/><path d="m0 160h128v64h-128z" fill="#f98800" transform="matrix(-1 0 0 -1 128 384)"/><path d="m128 160-128 64h128z" fill="#f05a29"/><path d="m256 160h128v64h-128z" fill="#f98800" transform="matrix(-1 0 0 -1 640 384)"/><path d="m384 160-128 64h128z" fill="#f05a29"/><path d="m192 224h128v64h-128z" fill="#f98800" transform="matrix(-1 0 0 -1 512 512)"/><path d="m320 224-128 64h128z" fill="#f05a29"/><path d="m64 224h128v64h-128z" fill="#f98800" transform="matrix(-1 0 0 -1 256 512)"/><path d="m192 224-128 64h128z" fill="#f05a29"/><path d="m320 224h128v64h-128z" fill="#f98800" transform="matrix(-1 0 0 -1 768 512)"/><path d="m448 224-128 64h128z" fill="#f05a29"/><path d="m384 160h128v64h-128z" fill="#f98800" transform="matrix(-1 0 0 -1 896 384)"/><path d="m512 160-128 64h128z" fill="#f05a29"/><path d="m128 288h128v64h-128z" fill="#f98800" transform="matrix(-1 0 0 -1 384 640)"/><path d="m256 288-128 64h128z" fill="#f05a29"/><path d="m0 288h128v64h-128z" fill="#f98800" transform="matrix(-1 0 0 -1 128 640)"/><path d="m128 288-128 64h128z" fill="#f05a29"/><path d="m256 288h128v64h-128z" fill="#f98800" transform="matrix(-1 0 0 -1 640 640)"/><path d="m384 288-128 64h128z" fill="#f05a29"/><path d="m192 352h128v64h-128z" fill="#f98800" transform="matrix(-1 0 0 -1 512 768)"/><path d="m320 352-128 64h128z" fill="#f05a29"/><path d="m64 352h128v64h-128z" fill="#f98800" transform="matrix(-1 0 0 -1 256 768)"/><path d="m192 352-128 64h128z" fill="#f05a29"/><path d="m0 352h64v64h-64z" fill="#f98800"/><path d="m64 352v64h-64v-32z" fill="#f05a29"/><path d="m0 352h64v64h-64z" fill="#f98800"/><path d="m64 352v64h-64v-32z" fill="#f05a29"/><path d="m320 352h128v64h-128z" fill="#f98800" transform="matrix(-1 0 0 -1 768 768)"/><path d="m448 352-128 64h128z" fill="#f05a29"/><path d="m384 288h128v64h-128z" fill="#f98800" transform="matrix(-1 0 0 -1 896 640)"/><path d="m512 288-128 64h128z" fill="#f05a29"/><path d="m128 416h128v64h-128z" fill="#f98800" transform="matrix(-1 0 0 -1 384 896)"/><path d="m256 416-128 64h128z" fill="#f05a29"/><path d="m0 416h128v64h-128z" fill="#f98800" transform="matrix(-1 0 0 -1 128 896)"/><path d="m128 416-128 64h128z" fill="#f05a29"/><path d="m256 416h128v64h-128z" fill="#f98800" transform="matrix(-1 0 0 -1 640 896)"/><path d="m384 416-128 64h128z" fill="#f05a29"/><path d="m64 480h128v32h-128z" fill="#f98800"/><path d="m192 480v32h-64z" fill="#f05a29"/><path d="m192 480h128v32h-128z" fill="#f98800"/><path d="m320 480v32h-64z" fill="#f05a29"/><path d="m320 480h128v32h-128z" fill="#f98800"/><path d="m448 480v32h-64z" fill="#f05a29"/><path d="m448 352h64v64h-64z" fill="#f98800"/><path d="m512 384v32h-64z" fill="#f05a29"/><path d="m0 224h64v64h-64z" fill="#f98800"/><path d="m64 224v64h-64v-32z" fill="#f05a29"/><path d="m448 224h64v64h-64z" fill="#f98800"/><path d="m512 256v32h-64z" fill="#f05a29"/><path d="m0 96h64v64h-64z" fill="#f98800"/><path d="m64 96v64h-64v-32z" fill="#f05a29"/><path d="m448 96h64v64h-64z" fill="#f98800"/><path d="m512 128v32h-64z" fill="#f05a29"/><path d="m192 0h128v32h-128z" fill="#f98800"/><path d="m320 0v32h-128l64-32z" fill="#f05a29"/><path d="m64 0h128v32h-128z" fill="#f98800"/><path d="m192 0v32h-128l64-32z" fill="#f05a29"/><path d="m320 0h128v32h-128z" fill="#f98800"/><path d="m448 0v32h-128l64-32z" fill="#f05a29"/><path d="m0 0h64v32h-64z" fill="#f98800"/><path d="m0 0h64v32h-64z" fill="#f05a29"/><path d="m448 0h64v32h-64z" fill="#f98800"/><path d="m512 0v32h-64z" fill="#f05a29"/><path d="m448 480h64v32h-64z" fill="#f98800"/><path d="m0 480h64v32h-64z" fill="#f98800"/><path d="m64 480v32h-64z" fill="#f05a29"/><path d="m384 416h128v64h-128z" fill="#f98800" transform="matrix(-1 0 0 -1 896 896)"/><path d="m512 416-128 64h128z" fill="#f05a29"/><path d="m504 104c4.4179688 0 8-3.5820313 8-8s-3.5820313-8-8-8h-56-56v-48h56 56c4.4179688 0 8-3.5820313 8-8s-3.5820313-8-8-8h-48v-16c0-4.4179688-3.5820313-8-8-8s-8 3.5820313-8 8v16h-56-56v-16c0-4.4179688-3.5820313-8-8-8s-8 3.5820313-8 8v16h-56-56v-16c0-4.4179688-3.5820313-8-8-8s-8 3.5820313-8 8v16h-56-56v-16c0-4.4179688-3.5820313-8-8-8s-8 3.5820313-8 8v16h-48c-4.4179688 0-8 3.5820313-8 8s3.5820313 8 8 8h56 56v48h-56-56c-4.4179688 0-8 3.5820313-8 8s3.5820313 8 8 8h48v48h-48c-4.4179688 0-8 3.5820313-8 8s3.5820313 8 8 8h56 56v48h-56-56c-4.4179688 0-8 3.5820313-8 8s3.5820313 8 8 8h48v48h-48c-4.4179688 0-8 3.5820313-8 8s3.5820313 8 8 8h56 56v48h-56-56c-4.4179688 0-8 3.5820313-8 8s3.5820313 8 8 8h48v48h-48c-4.4179688 0-8 3.5820313-8 8s3.5820313 8 8 8h56 56v48h-56-56c-4.4179688 0-8 3.5820313-8 8s3.5820313 8 8 8h48v16c0 4.4179688 3.5820313 8 8 8s8-3.5820313 8-8v-16h56 56v16c0 4.4179688 3.5820313 8 8 8s8-3.5820313 8-8v-16h56 56v16c0 4.4179688 3.5820313 8 8 8s8-3.5820313 8-8v-16h56 56v16c0 4.4179688 3.5820313 8 8 8s8-3.5820313 8-8v-16h48c4.4179688 0 8-3.5820313 8-8s-3.5820313-8-8-8h-56-56v-48h56 56c4.4179688 0 8-3.5820313 8-8s-3.5820313-8-8-8h-48v-48h48c4.4179688 0 8-3.5820313 8-8s-3.5820313-8-8-8h-56-56v-48h56 56c4.4179688 0 8-3.5820313 8-8s-3.5820313-8-8-8h-48v-48h48c4.4179688 0 8-3.5820313 8-8s-3.5820313-8-8-8h-56-56v-48h56 56c4.4179688 0 8-3.5820313 8-8s-3.5820313-8-8-8h-48v-48zm-128-64v48h-56-56v-48h56zm-64 112h-56-56v-48h56 56zm-176-112h56 56v48h-56-56zm-64 112v-48h56 56v48h-56zm64 16h56 56v48h-56-56zm176 112h-56-56v-48h56 56zm-240 0v-48h56 56v48h-56zm64 16h56 56v48h-56-56zm176 112h-56-56v-48h56 56zm-240 0v-48h56 56v48h-56zm64 64v-48h56 56v48h-56zm240 0h-56-56v-48h56 56zm64-112v48h-56-56v-48h56zm-64-16h-56-56v-48h56 56zm64-112v48h-56-56v-48h56zm-64-16h-56-56v-48h56 56zm64-64h-56-56v-48h56 56z" fill="#c4d4de"/></svg>