<svg enable-background="new 0 0 512 512" height="512" viewBox="0 0 512 512" width="512" xmlns="http://www.w3.org/2000/svg">
  <path d="m60.5 0h30v512h-30z" fill="#557f89"/>
  <path d="m75.5 0h15v512h-15z" fill="#304b59"/>
  <path d="m30.5 362h90v90h-90z" fill="#ff8d6e"/>
  <path d="m75.5 362h45v90h-45z" fill="#ed6666"/>
  <path d="m421.5 0h30v512h-30z" fill="#557f89"/>
  <path d="m436.5 0h15v512h-15z" fill="#304b59"/>
  <path d="m391.5 362.13h90v90h-90z" fill="#00c2f3"/>
  <path d="m436.5 362.13h45v90h-45z" fill="#1e90ff"/>
  <path d="m180.5 0h30v512h-30z" fill="#557f89"/>
  <path d="m195.5 0h15v512h-15z" fill="#304b59"/>
  <path d="m150.5 53.652h90v90h-90z" fill="#00c2f3"/>
  <path d="m195.5 53.652h45v90h-45z" fill="#1e90ff"/>
  <path d="m301.5 0h30v512h-30z" fill="#557f89"/>
  <path d="m316.5 0h15v512h-15z" fill="#304b59"/>
  <path d="m271.5 222h90v90h-90z" fill="#ff8d6e"/>
  <path d="m316.5 222h45v90h-45z" fill="#ed6666"/>
</svg>